<?xml version="1.0" encoding="UTF-8"?>
<svg width="560px" height="454px" viewBox="0 0 1080 877" version="1.1" xmlns="http://www.w3.org/2000/svg" xmlns:xlink="http://www.w3.org/1999/xlink">
<path d="M0 0 C356.4 0 712.8 0 1080 0 C1080 356.4 1080 712.8 1080 877 C723.6 877 367.2 877 0 877 C0 520.4 0 164 0 0 Z" fill="#FEFEFD" transform="translate(0,0)"/>
<path d="M0 0 C2.5 0.375 2.5 0.375 4.375 1.4375 C6.16310335 4.51701133 5.24592606 7.01833273 4.5 10.375 C3.5 11.375 3.5 11.375 -0.0625 11.4375 C-1.196875 11.416875 -2.33125 11.39625 -3.5 11.375 C-4.16 10.055 -4.82 8.735 -5.5 7.375 C-61.435 7.87 -61.435 7.87 -118.5 8.375 C-118.5 10.685 -118.5 12.995 -118.5 15.375 C-120.6727422 18.00516161 -122.44673788 19.84836894 -125.5 21.375 C-126.83343222 21.18820454 -128.16674887 21.00058364 -129.5 20.8125 C-136.24927436 21.04553 -136.24927436 21.04553 -144.5 31.375 C-88.565 31.87 -88.565 31.87 -31.5 32.375 C-30.84 31.055 -30.18 29.735 -29.5 28.375 C-26.125 28.1875 -26.125 28.1875 -22.5 28.375 C-20.5 31.375 -20.5 31.375 -20.6875 34.4375 C-21.5 37.375 -21.5 37.375 -24.5 39.375 C-27.0625 39.25 -27.0625 39.25 -29.5 38.375 C-30.65234375 36.3203125 -30.65234375 36.3203125 -31.5 34.375 C-46.35659186 33.9652076 -61.21125657 33.69220484 -76.07303715 33.57447147 C-82.97719856 33.51671339 -89.87558414 33.41647983 -96.77709961 33.21264648 C-129.6455764 30.46117336 -129.6455764 30.46117336 -158.86944866 41.82312298 C-163.16990712 45.91396424 -166.61181598 50.5785625 -169.75053406 55.6084137 C-173.44018812 61.44319226 -178.32450378 66.35284357 -183.26953125 71.13671875 C-184.09517578 71.94560547 -184.92082031 72.75449219 -185.77148438 73.58789062 C-187.48138039 75.25310066 -189.1949972 76.91449767 -190.91210938 78.57226562 C-191.73130859 79.37728516 -192.55050781 80.18230469 -193.39453125 81.01171875 C-194.13550049 81.73061279 -194.87646973 82.44950684 -195.63989258 83.19018555 C-197.61703155 85.51246099 -198.42720911 87.54631509 -199.5 90.375 C-202.63255664 93.65325695 -204.48844359 95.21242843 -209 95.9375 C-213.16875405 95.26752167 -215.30728042 94.12222382 -218.5 91.375 C-219.66796875 88.73046875 -219.66796875 88.73046875 -220.5 86.375 C-243.07071225 84.96314383 -265.63970388 84.05729352 -288.25 83.625 C-289.07230748 83.6088285 -289.89461495 83.59265699 -290.74184084 83.57599545 C-343.70469962 81.02120888 -343.70469962 81.02120888 -389.18707848 103.92697906 C-392.03034314 106.81205202 -394.63839523 109.85421574 -397.1875 113 C-397.92872353 113.91006554 -397.92872353 113.91006554 -398.68492126 114.83851624 C-406.45069224 124.52974893 -412.79217528 134.85662686 -417.5 146.375 C-419.12655646 148.53029933 -419.98742867 149.2119535 -422.55078125 150.02734375 C-426.79131365 150.56198773 -428.97400802 150.62365075 -432.9375 148.75 C-435.5 146.375 -435.5 146.375 -437.5 141.375 C-509.44 141.375 -581.38 141.375 -655.5 141.375 C-655.5 146.325 -655.5 151.275 -655.5 156.375 C-588.51 156.705 -521.52 157.035 -452.5 157.375 C-452.17 156.055 -451.84 154.735 -451.5 153.375 C-447.24348873 148.58642482 -447.24348873 148.58642482 -443.27734375 148.10546875 C-439.15857298 148.35988364 -436.95134017 149.031589 -433.625 151.5625 C-431.5 154.375 -431.5 154.375 -430.22338867 157.15869141 C-428.20056532 160.93382597 -425.78194529 163.61301363 -422.80078125 166.6484375 C-422.24690231 167.21704498 -421.69302338 167.78565247 -421.12236023 168.37149048 C-419.95395058 169.56373517 -418.78132525 170.75186159 -417.60473633 171.93603516 C-415.81545196 173.74701226 -414.05760135 175.58522176 -412.29882812 177.42578125 C-411.15546625 178.58513147 -410.01034051 179.74274534 -408.86328125 180.8984375 C-408.08625603 181.7232814 -408.08625603 181.7232814 -407.29353333 182.56478882 C-405.19754847 184.62348019 -403.42240268 186.25294407 -400.44418335 186.64703369 C-398.4611208 186.60691664 -396.47990841 186.49378184 -394.5 186.375 C-388.83823529 189.36029412 -388.83823529 189.36029412 -387.5 193.375 C-376.0438646 183.77387601 -365.60321698 172.95842949 -354.98271179 162.4579649 C-351.37660661 158.89299085 -347.76130384 155.33856332 -344.12255859 151.80688477 C-340.58335635 148.37141214 -337.06932807 144.91197224 -333.57159424 141.43430519 C-332.24053083 140.11914741 -330.90085828 138.81264186 -329.5524292 137.51529503 C-322.16162926 130.91155186 -322.16162926 130.91155186 -317.76904297 122.38858032 C-317.73278564 119.74014172 -317.73278564 119.74014172 -318.23608398 117.37287903 C-318.5 115.375 -318.5 115.375 -316.5 112.25 C-313.2115536 110.194721 -311.34155784 109.78712818 -307.5625 109.7109375 C-305.5 110.375 -305.5 110.375 -303.54341125 112.87528992 C-299.10070152 116.52431576 -295.33333584 116.0817013 -289.74291992 116.03442383 C-288.65954346 116.04490753 -287.57616699 116.05539124 -286.45996094 116.06619263 C-282.88317308 116.09496714 -279.30735174 116.08864781 -275.73046875 116.08203125 C-273.24895513 116.09514472 -270.76745219 116.11044785 -268.28596497 116.12785339 C-261.75768419 116.16775662 -255.2296823 116.17789735 -248.70129395 116.18188477 C-242.03841199 116.18852656 -235.37567221 116.22861343 -228.71289062 116.26367188 C-215.64194177 116.32830217 -202.57109729 116.36245151 -189.5 116.375 C-189.21898437 115.73433594 -188.93796875 115.09367187 -188.6484375 114.43359375 C-187.5 112.375 -187.5 112.375 -185.125 111.4375 C-181.89060303 111.36049055 -180.82902796 112.21849263 -178.5 114.375 C-178.8125 117.75 -178.8125 117.75 -179.5 121.375 C-182.5 123.375 -182.5 123.375 -185.0625 123.125 C-187.5 122.375 -187.5 122.375 -189.5 120.375 C-191.53896898 120.06155112 -191.53896898 120.06155112 -193.91653442 120.0965271 C-194.8448407 120.08536362 -195.77314697 120.07420013 -196.72958374 120.06269836 C-197.75097443 120.06053818 -198.77236511 120.05837799 -199.82470703 120.05615234 C-200.89789185 120.04610672 -201.97107666 120.0360611 -203.07678223 120.02571106 C-206.63712001 119.99472909 -210.19738211 119.97780222 -213.7578125 119.9609375 C-216.22118793 119.94223793 -218.68455688 119.92266545 -221.1479187 119.9022522 C-227.6416238 119.85079706 -234.1353497 119.81124306 -240.62915039 119.77410889 C-247.25151775 119.73415295 -253.8737976 119.68302236 -260.49609375 119.6328125 C-273.49733337 119.53589484 -286.49862308 119.4511617 -299.5 119.375 C-299.6134375 120.14199219 -299.726875 120.90898437 -299.84375 121.69921875 C-300.62981608 124.9043096 -302.04974003 126.44233211 -304.62890625 128.46484375 C-306.94242458 129.59020862 -308.39115744 129.46328339 -310.9375 129.25 C-313.90479116 129.02116092 -315.09141187 129.05598133 -317.47680664 130.91845703 C-318.3719397 131.89081299 -318.3719397 131.89081299 -319.28515625 132.8828125 C-319.89367432 133.53137207 -320.50219238 134.17993164 -321.12915039 134.84814453 C-321.80772095 135.60393799 -321.80772095 135.60393799 -322.5 136.375 C-315.98558999 136.45089036 -309.4712934 136.50353202 -302.95654297 136.53979492 C-300.73905172 136.55490753 -298.52159047 136.57539826 -296.30419922 136.60131836 C-293.12199511 136.63759293 -289.94018518 136.65470139 -286.7578125 136.66796875 C-285.26400558 136.69119453 -285.26400558 136.69119453 -283.74002075 136.71488953 C-282.81921722 136.71511612 -281.8984137 136.71534271 -280.94970703 136.71557617 C-280.1369632 136.72223801 -279.32421936 136.72889984 -278.48684692 136.73576355 C-277.5033577 136.55718559 -277.5033577 136.55718559 -276.5 136.375 C-275.84 135.385 -275.18 134.395 -274.5 133.375 C-270.44554358 132.94367485 -268.95029042 133.07480639 -265.5 135.375 C-265.09626399 138.53759871 -264.95541338 140.51512639 -266.6875 143.25 C-269.15507108 144.78159584 -270.64519831 144.80322025 -273.5 144.375 C-273.949198 143.88550873 -274.398396 143.39601746 -274.86120605 142.89169312 C-277.01058026 140.90246129 -278.32193257 140.90726213 -281.22070312 140.73291016 C-282.18020874 140.67181061 -283.13971436 140.61071106 -284.1282959 140.54776001 C-288.57575674 140.35917038 -293.02177712 140.20473168 -297.47216797 140.10498047 C-299.79695424 140.03579998 -302.12095171 139.92732658 -304.44189453 139.77685547 C-306.12774658 139.66881592 -306.12774658 139.66881592 -307.84765625 139.55859375 C-308.83580322 139.48519775 -309.8239502 139.41180176 -310.84204102 139.33618164 C-331.40226566 139.76298659 -329.51193394 143.38693394 -346.5 160.375 C-319.11 160.705 -291.72 161.035 -263.5 161.375 C-262.84 160.055 -262.18 158.735 -261.5 157.375 C-254.625 158.25 -254.625 158.25 -253.5 159.375 C-253.3125 162.8125 -253.3125 162.8125 -253.5 166.375 C-255.5 168.375 -255.5 168.375 -258.4375 168.6875 C-261.5 168.375 -261.5 168.375 -262.70370483 166.90948486 C-265.52023422 164.50346508 -268.74729733 164.70476632 -272.30322266 164.51074219 C-273.09971788 164.45805837 -273.89621311 164.40537455 -274.71684456 164.35109425 C-277.36520535 164.18625863 -280.01365249 164.04944138 -282.6640625 163.921875 C-283.57625801 163.87784986 -284.48845352 163.83382473 -285.42829132 163.7884655 C-292.32538029 163.4750265 -299.22256294 163.27465193 -306.125 163.125 C-307.12605019 163.10165714 -308.12710037 163.07831429 -309.15848541 163.05426407 C-340.11719825 161.70309891 -340.11719825 161.70309891 -367.08004761 174.71139526 C-374.86087646 182.30265314 -381.18747012 191.03561033 -385.65478516 200.93359375 C-385.38705827 205.15641523 -382.23466003 207.34864851 -379.28125 210.14453125 C-378.63055542 210.78436447 -377.97986084 211.42419769 -377.30944824 212.0834198 C-375.21995952 214.13267685 -373.11100942 216.16044025 -371 218.1875 C-368.92186495 220.20788222 -366.84799296 222.23251496 -364.77624512 224.25944519 C-363.4863531 225.51868422 -362.19211551 226.77349391 -360.8927002 228.02290344 C-357.0771894 231.71546165 -353.51695923 235.54604932 -350.0682373 239.58403015 C-349.55071899 240.1750502 -349.03320068 240.76607025 -348.5 241.375 C-348.09492722 241.93820953 -347.68985443 242.50141907 -347.27250671 243.08169556 C-344.42580208 245.15878543 -341.30077551 244.8140629 -337.9074707 244.80737305 C-336.75101547 244.82266052 -336.75101547 244.82266052 -335.57119751 244.83825684 C-333.02265214 244.86845321 -330.47448221 244.87766271 -327.92578125 244.88671875 C-326.15885665 244.90356055 -324.39194407 244.92171011 -322.62504578 244.94111633 C-317.97427119 244.9886768 -313.32354532 245.01844695 -308.67260742 245.04455566 C-303.92682268 245.07433075 -299.18120591 245.12087152 -294.43554688 245.16601562 C-285.12378567 245.25211747 -275.81198996 245.31943209 -266.5 245.375 C-265.84 244.055 -265.18 242.735 -264.5 241.375 C-261.125 241.6875 -261.125 241.6875 -257.5 242.375 C-255.5 245.375 -255.5 245.375 -255.75 247.9375 C-256.5 250.375 -256.5 250.375 -258.5 252.375 C-261.4375 252.6875 -261.4375 252.6875 -264.5 252.375 C-264.93186111 251.88057907 -265.36372223 251.38615814 -265.80867004 250.87675476 C-268.32360022 248.64371421 -270.30581285 249.01455577 -273.6237793 249.03442383 C-274.88486008 249.03465042 -276.14594086 249.03487701 -277.44523621 249.03511047 C-278.82156732 249.05043037 -280.19789482 249.06607836 -281.57421875 249.08203125 C-282.98240202 249.0876274 -284.39059114 249.09189741 -285.79878235 249.09489441 C-289.50281944 249.10634182 -293.2065029 249.13580765 -296.91040039 249.16900635 C-300.69086931 249.19970974 -304.47139543 249.21340029 -308.25195312 249.22851562 C-315.66812986 249.26067784 -323.08401536 249.31187245 -330.5 249.375 C-330.17 249.705 -329.84 250.035 -329.5 250.375 C-329.26470588 255.90441176 -329.26470588 255.90441176 -330.5 258.375 C-308.72 258.87 -308.72 258.87 -286.5 259.375 C-285.84 258.055 -285.18 256.735 -284.5 255.375 C-281.6875 255.1875 -281.6875 255.1875 -278.5 255.375 C-277.81710152 256.10992424 -277.81710152 256.10992424 -277.1204071 256.85969543 C-274.87982869 258.95494588 -273.42022842 258.77063888 -270.38598633 258.80737305 C-268.82470757 258.83706429 -268.82470757 258.83706429 -267.23188782 258.86735535 C-265.54895882 258.87694023 -265.54895882 258.87694023 -263.83203125 258.88671875 C-262.68208176 258.90466995 -261.53213226 258.92262115 -260.34733582 258.94111633 C-256.66909468 258.99536261 -252.99098436 259.02916171 -249.3125 259.0625 C-246.82094528 259.09566034 -244.32940785 259.13014878 -241.83789062 259.16601562 C-235.72537772 259.25109735 -229.61284818 259.31938656 -223.5 259.375 C-223.5 260.365 -223.5 261.355 -223.5 262.375 C-240.99 262.375 -258.48 262.375 -276.5 262.375 C-277.16 263.695 -277.82 265.015 -278.5 266.375 C-280.81 266.045 -283.12 265.715 -285.5 265.375 C-285.83 264.385 -286.16 263.395 -286.5 262.375 C-287.1882486 262.39863113 -287.87649719 262.42226227 -288.58560181 262.4466095 C-295.75510701 262.68770718 -302.92500301 262.89272335 -310.09619141 263.0769043 C-312.77204629 263.14747095 -315.44624117 263.23294037 -318.12158203 263.32495117 C-321.96882306 263.45566879 -325.8157079 263.55328348 -329.6640625 263.64453125 C-331.45500839 263.71605156 -331.45500839 263.71605156 -333.28213501 263.78901672 C-342.56991456 263.95806678 -342.56991456 263.95806678 -346.30224609 261.4831543 C-348.7311766 258.04806051 -348.667252 257.60248667 -348.33911133 253.67260742 C-348.06675609 249.0057943 -349.01465226 247.0576194 -352.0925293 243.55200195 C-353.72645671 241.87932204 -355.38895857 240.23423005 -357.07421875 238.61328125 C-358.38819389 237.29918526 -358.38819389 237.29918526 -359.72871399 235.95854187 C-362.05167608 233.64900469 -364.39612001 231.36442288 -366.7510376 229.08758545 C-368.19110383 227.68398743 -369.61456281 226.26556231 -371.03295898 224.84008789 C-373.75890718 222.10087128 -376.50542147 219.38442657 -379.26171875 216.67578125 C-380.11086349 215.82703934 -380.96000824 214.97829742 -381.83488464 214.10383606 C-383.03556328 212.95089302 -383.03556328 212.95089302 -384.26049805 211.7746582 C-385.30973701 210.7506768 -385.30973701 210.7506768 -386.38017273 209.70600891 C-388.44258638 208.10703999 -388.44258638 208.10703999 -391.01887512 208.63908386 C-391.83764633 208.88193619 -392.65641754 209.12478851 -393.5 209.375 C-398.30142053 209.83227815 -401.1396829 210.10147304 -405 207.0625 C-407.5 204.375 -407.5 204.375 -407.5 201.375 C-441.8536615 201.29650746 -476.20700794 201.26538712 -510.56074195 201.29759431 C-514.61861938 201.30135812 -518.67649704 201.30473067 -522.734375 201.30786133 C-523.5422085 201.30849115 -524.350042 201.30912097 -525.1823553 201.30976988 C-538.25424503 201.31902869 -551.32589752 201.29660724 -564.39773761 201.26243024 C-577.81565388 201.22805539 -591.23325894 201.2278361 -604.6511842 201.25917059 C-612.92768536 201.27742653 -621.20328323 201.26919957 -629.47969981 201.22684724 C-635.15902395 201.20033976 -640.8377097 201.20707886 -646.51699965 201.23965739 C-649.79176515 201.25747022 -653.06449351 201.25597936 -656.3392086 201.22477531 C-671.62886433 200.39325883 -671.62886433 200.39325883 -684.78591919 206.71022034 C-686.0334783 208.25750944 -687.27195747 209.81217601 -688.5 211.375 C-709.17885656 226.72067226 -733.90277986 231.27616488 -759.125 227.6875 C-774.11718908 224.57591359 -786.93030501 217.12829236 -798.5 207.375 C-799.71623047 206.45654297 -799.71623047 206.45654297 -800.95703125 205.51953125 C-811.33583457 196.76689988 -817.45104564 184.71799711 -822.5 172.375 C-823.03753906 171.07755859 -823.03753906 171.07755859 -823.5859375 169.75390625 C-831.22355202 149.14747103 -828.834243 125.29777428 -819.875 105.625 C-809.28065609 83.60528449 -790.55172897 68.41541529 -767.83203125 60.01953125 C-744.56136525 52.60183909 -720.87684323 55.88417464 -699.4140625 66.96875 C-691.51608399 71.34546353 -691.51608399 71.34546353 -688.61174917 74.28825039 C-682.81925089 80.11716705 -678.75586532 81.5826397 -670.64904785 81.66676331 C-669.58970582 81.70817143 -668.5303638 81.74957955 -667.4389205 81.79224247 C-663.90534558 81.91966649 -660.37303372 81.99070924 -656.83789062 82.06079102 C-654.29532701 82.13881019 -651.75284608 82.21956476 -649.21044922 82.30284119 C-641.58251542 82.53659326 -633.95437656 82.69997271 -626.32419038 82.83931223 C-624.15839376 82.8788671 -621.99262487 82.91973087 -619.82685661 82.96080661 C-606.30302737 83.21481022 -592.77886603 83.43236087 -579.25333405 83.57084751 C-576.12396198 83.6034508 -572.99459538 83.63651731 -569.86523438 83.67016602 C-569.08767357 83.67849521 -568.31011277 83.68682441 -567.50898951 83.69540601 C-555.78318136 83.82615633 -544.06944602 84.12105142 -532.34960938 84.51098633 C-514.28613323 85.10347145 -496.23031129 85.48351683 -478.15625 85.44140625 C-477.43206155 85.43979652 -476.7078731 85.43818678 -475.96173954 85.43652827 C-428.67961799 85.72280881 -428.67961799 85.72280881 -388.73376465 63.07933044 C-380.06002695 54.18644822 -367.49154014 41.28025792 -366.21641541 28.54205513 C-366.21860164 25.89461382 -366.21860164 25.89461382 -366.4920578 23.46091557 C-366.5 21.375 -366.5 21.375 -364.4375 18.25 C-360.74867103 15.89542831 -358.80761917 15.75962583 -354.5 16.375 C-352.18720389 17.53139806 -350.32590172 18.54909828 -348.5 20.375 C-346.12798453 20.49986954 -343.78359657 20.56100052 -341.40991211 20.58032227 C-340.29778603 20.59517166 -340.29778603 20.59517166 -339.16319275 20.61032104 C-336.70127607 20.64202466 -334.23934007 20.66672826 -331.77734375 20.69140625 C-330.07482895 20.71196814 -328.37231935 20.7329644 -326.66981506 20.75437927 C-322.18012691 20.80967899 -317.69039208 20.85905328 -313.20062256 20.90722656 C-308.62263822 20.95738406 -304.04472197 21.01310008 -299.46679688 21.06835938 C-290.4779227 21.17603751 -281.4889895 21.27746088 -272.5 21.375 C-271.84 20.055 -271.18 18.735 -270.5 17.375 C-265.1179402 17.01619601 -265.1179402 17.01619601 -262.5625 18.5 C-261.5 20.375 -261.5 20.375 -261.6875 23.4375 C-262.5 26.375 -262.5 26.375 -264.5 28.375 C-267.625 28.5 -267.625 28.5 -270.5 28.375 C-271.16 27.055 -271.82 25.735 -272.5 24.375 C-297.25 24.375 -322 24.375 -347.5 24.375 C-347.83 26.355 -348.16 28.335 -348.5 30.375 C-350.39121793 32.63226011 -351.87292849 34.06146424 -354.5 35.375 C-355.64807129 35.19783447 -356.79614258 35.02066895 -357.97900391 34.83813477 C-362.34150182 34.80483185 -364.26862666 36.48664745 -367.41552734 39.39819336 C-369.24592537 41.23661788 -371.04695882 43.08762644 -372.8359375 44.96484375 C-373.80436316 45.9507498 -374.77466091 46.93482014 -375.74673462 47.91712952 C-378.29230521 50.49878744 -380.81335476 53.10310508 -383.32946777 55.71343994 C-386.39675308 58.88695735 -389.49147175 62.03368195 -392.58281898 65.18373203 C-394.98588553 67.63326733 -397.38439298 70.08676127 -399.77011108 72.5532074 C-400.62505157 73.43404495 -401.47999207 74.31488251 -402.36083984 75.22241211 C-403.49046646 76.3915641 -403.49046646 76.3915641 -404.64291382 77.58433533 C-406.5 79.375 -406.5 79.375 -408.5 80.375 C-380.01566643 84.30282974 -380.01566643 84.30282974 -354.1015625 75.3828125 C-351.78596861 73.38128453 -349.6835111 71.26325458 -347.625 69 C-347.13249756 68.46866455 -346.63999512 67.9373291 -346.13256836 67.38989258 C-341.68454043 62.42142338 -337.97128622 57.72503819 -338.0546875 50.78125 C-338.21300049 49.61432617 -338.21300049 49.61432617 -338.37451172 48.42382812 C-338.5 46.375 -338.5 46.375 -336.5 43.25 C-333.19608544 41.1850534 -331.35815865 40.81624629 -327.5625 40.80859375 C-325.5 41.375 -325.5 41.375 -323.36732483 43.37805176 C-319.73955295 45.90461332 -316.82320101 45.93965771 -312.56030273 45.89257812 C-311.38378647 45.90309204 -311.38378647 45.90309204 -310.1835022 45.91381836 C-307.5998356 45.93137424 -305.0172708 45.91978589 -302.43359375 45.90625 C-300.6342803 45.90894535 -298.83496826 45.91282813 -297.03565979 45.91784668 C-293.26883038 45.92373821 -289.50238089 45.91518898 -285.7355957 45.89648438 C-280.90766688 45.87367847 -276.08062671 45.88683022 -271.25273037 45.91077423 C-267.53893841 45.92522761 -263.82535722 45.92062865 -260.11155891 45.91026306 C-258.33135943 45.90759535 -256.55114079 45.91086712 -254.77096367 45.92018127 C-252.28356078 45.93034135 -249.79759831 45.91485557 -247.31030273 45.89257812 C-246.57512924 45.90067505 -245.83995575 45.90877197 -245.08250427 45.91711426 C-241.56345988 45.85872765 -239.86704199 45.69604596 -237.17201233 43.33874512 C-236.62024826 42.69070923 -236.06848419 42.04267334 -235.5 41.375 C-232.59063544 41.44596011 -231.03456424 42.01862384 -228.625 43.625 C-227.5 45.375 -227.5 45.375 -227.625 47.875 C-228.57795985 50.59774244 -229.04288511 51.84989421 -231.5 53.375 C-234.6875 53.0625 -234.6875 53.0625 -237.5 52.375 C-237.83 51.385 -238.16 50.395 -238.5 49.375 C-265.23 49.375 -291.96 49.375 -319.5 49.375 C-319.83 51.355 -320.16 53.335 -320.5 55.375 C-322.774816 58.61223816 -324.02583465 59.28016693 -327.9375 60.0625 C-329.113125 60.165625 -330.28875 60.26875 -331.5 60.375 C-340.29045134 61.6523501 -340.29045134 61.6523501 -355.5 80.375 C-288.675 80.87 -288.675 80.87 -220.5 81.375 C-219.84 79.725 -219.18 78.075 -218.5 76.375 C-215.65453294 73.36693482 -214.13857387 72.45482173 -210 71.9375 C-206.29501836 72.4006227 -204.51682104 73.2550717 -201.5 75.375 C-200.17399137 76.05611919 -198.84169951 76.72533497 -197.5 77.375 C-189.64749838 69.75447542 -181.82241923 62.10694383 -174.03091431 54.42403603 C-170.41186596 50.85711685 -166.78414036 47.30006693 -163.13476562 43.76416016 C-159.61138479 40.34965149 -156.11320146 36.91108977 -152.63092041 33.45469284 C-151.29997567 32.14218704 -149.96027636 30.83849657 -148.61175537 29.54405594 C-141.1795698 22.93381541 -141.1795698 22.93381541 -136.78442383 14.38641357 C-136.76238224 11.73714864 -136.76238224 11.73714864 -137.28881836 9.37191772 C-137.5 7.375 -137.5 7.375 -136.47485352 5.6600647 C-133.65491051 3.07360554 -131.52752185 2.37775218 -127.75 2 C-124.5 2.375 -124.5 2.375 -122.5 3.375 C-120.94840321 3.47375449 -119.39263285 3.51004578 -117.83790588 3.51544189 C-116.36360107 3.52400711 -116.36360107 3.52400711 -114.85951233 3.53274536 C-113.23631325 3.53442215 -113.23631325 3.53442215 -111.58032227 3.53613281 C-109.87536087 3.54358017 -109.87536087 3.54358017 -108.13595581 3.55117798 C-104.36276655 3.56582534 -100.58961931 3.57260533 -96.81640625 3.578125 C-94.20328265 3.5838736 -91.59015908 3.58963137 -88.97703552 3.59539795 C-84.19493129 3.60497143 -79.41283618 3.61086717 -74.63072354 3.6138947 C-67.58755609 3.618378 -60.54458246 3.63593842 -53.50147396 3.6648953 C-47.40498763 3.68909225 -41.30858151 3.69683779 -35.21204948 3.69857025 C-32.61601645 3.70160551 -30.01998441 3.70966317 -27.42398262 3.72275543 C-23.7988614 3.739735 -20.17421668 3.73795549 -16.54907227 3.73144531 C-14.92890953 3.74526749 -14.92890953 3.74526749 -13.27601624 3.7593689 C-12.29032654 3.75379974 -11.30463684 3.74823059 -10.28907776 3.74249268 C-9.43164254 3.74395924 -8.57420732 3.7454258 -7.69078922 3.7469368 C-4.2286319 3.15915606 -3.47963244 0.52194487 0 0 Z " fill="#0C0C0C" transform="translate(946.5,325.625)"/>
<path d="M0 0 C1.15113281 -0.01611328 2.30226563 -0.03222656 3.48828125 -0.04882812 C18.68002804 -0.05739168 32.41441155 4.39062606 44.9375 12.9375 C45.50267334 13.32180176 46.06784668 13.70610352 46.65014648 14.10205078 C49.43780365 16.08566718 50.64088915 16.98516744 51.75 20.3125 C53.07184405 21.00166655 54.40714585 21.66522498 55.75 22.3125 C68.48291004 33.76141911 76.83691839 52.3528468 77.87280273 69.32446289 C78.66142491 90.10909171 74.13383929 109.04043335 60.75 125.3125 C59.97914063 126.29089844 59.20828125 127.26929688 58.4140625 128.27734375 C46.43806562 142.55597853 27.42553746 151.726637 9.03271484 153.58740234 C-12.34564745 154.91726388 -32.67126844 149.4874298 -49.08984375 135.2890625 C-49.80269531 134.63679687 -50.51554687 133.98453125 -51.25 133.3125 C-52.27287109 132.42691406 -52.27287109 132.42691406 -53.31640625 131.5234375 C-64.59643174 121.14846298 -74.43324277 103.88952742 -75.44287109 88.3425293 C-76.1464121 58.16488392 -76.1464121 58.16488392 -70.25 46.3125 C-69.71890625 45.18328125 -69.1878125 44.0540625 -68.640625 42.890625 C-58.96656491 23.63125767 -43.61179896 10.83872723 -23.7265625 3.1015625 C-15.62238301 0.51947377 -8.50314754 -0.02348936 0 0 Z " fill="#FEFEFE" transform="translate(204.25,391.6875)"/>
<path d="M0 0 C-4.81437438 5.79835896 -9.99248432 11.12281785 -15.3359375 16.43359375 C-16.21528961 17.31153091 -17.09464172 18.18946808 -18.00064087 19.0940094 C-20.78974058 21.87754412 -23.58231018 24.65756769 -26.375 27.4375 C-28.2752542 29.33216665 -30.17474653 31.2275963 -32.07421875 33.12304688 C-36.71350604 37.75135161 -41.35564167 42.37678421 -46 47 C-48.25629897 45.90747629 -50.25391721 44.82157169 -52.3125 43.375 C-55.83102959 41.57482207 -58.092123 41.51151538 -62 42 C-65.22618733 44.0790985 -66.8669302 45.80039529 -69 49 C-71.90906102 49.29415347 -74.60524277 49.39096442 -77.51663208 49.36076355 C-78.40855534 49.36332682 -79.30047861 49.3658901 -80.21942985 49.36853105 C-83.22605686 49.37349607 -86.23218833 49.35693135 -89.23876953 49.34057617 C-91.38682035 49.33973049 -93.53487205 49.34020389 -95.68292236 49.34190369 C-101.52980022 49.34276735 -107.37649488 49.32508162 -113.22333002 49.30418181 C-119.32790362 49.28547672 -125.43248103 49.28366945 -131.53707886 49.28010559 C-143.10390785 49.27076695 -154.67065217 49.2461286 -166.2374438 49.21605712 C-179.40288681 49.18256963 -192.56833379 49.16604134 -205.73380876 49.15097082 C-232.82258618 49.11958061 -259.91128836 49.06678484 -287 49 C-288.31183347 46.37633306 -288.44193458 43.9750749 -288.8125 41.0625 C-289.63017908 35.43861564 -291.05913385 30.49687512 -293.1953125 25.2421875 C-294 23 -294 23 -294 20 C-267.21009729 19.85995177 -240.42024928 19.75408862 -213.63005447 19.68912697 C-201.19139635 19.65816486 -188.75296543 19.61593906 -176.31445312 19.54736328 C-165.47534816 19.48763372 -154.6364077 19.44886801 -143.79714274 19.43546903 C-138.05564818 19.42763441 -132.31462431 19.40917198 -126.57328033 19.36561966 C-121.17238709 19.32498074 -115.7721597 19.31231343 -110.37112808 19.32135391 C-108.38610087 19.31969937 -106.40105205 19.30771285 -104.41615677 19.28476715 C-101.7104711 19.25501581 -99.00731601 19.26205018 -96.30157471 19.2784729 C-95.11674873 19.25225733 -95.11674873 19.25225733 -93.90798688 19.22551215 C-91.70936966 19.26171303 -91.70936966 19.26171303 -88 20 C-85.59443283 22.95915794 -85.59443283 22.95915794 -84 26 C-80.59201828 28.58536545 -77.1592849 28.43781946 -73 28 C-68.16598038 25.07710441 -65.52043749 20.6073848 -62.73266602 15.82666016 C-48.70998775 -7.00139683 -23.43099247 -1.70000379 0 0 Z " fill="#FDFDFD" transform="translate(578,412)"/>
<path d="M0 0 C26.6768136 -0.11668093 53.3535891 -0.20491345 80.03060627 -0.25906086 C92.4165683 -0.28486809 104.802372 -0.32006683 117.18823242 -0.37719727 C127.98081556 -0.426955 138.77328406 -0.45927267 149.56597871 -0.47044247 C155.28334532 -0.47697414 161.00038392 -0.49237781 166.71764565 -0.52865028 C172.09468011 -0.5624891 177.47125022 -0.57307747 182.84838104 -0.56553841 C184.82575437 -0.56691838 186.8031426 -0.57692266 188.78042412 -0.59602737 C191.47307489 -0.62077639 194.16395497 -0.61497226 196.85664368 -0.60127258 C197.64554955 -0.61583679 198.43445543 -0.630401 199.24726754 -0.64540654 C201.42929554 -0.61523914 201.42929554 -0.61523914 205 0 C206.82145977 2.41257954 206.82145977 2.41257954 208 5 C211.70297544 7.46865029 214.70451031 7.56100937 219 7 C222.74547604 5.27032287 222.74547604 5.27032287 225 2 C230.58854696 4.33216403 234.52864138 9.0804382 238.75610352 13.27563477 C240.31123897 14.8112548 241.88638496 16.32425853 243.46289062 17.83789062 C244.45183064 18.81377863 245.43950616 19.79095004 246.42578125 20.76953125 C247.32723877 21.65229736 248.22869629 22.53506348 249.1574707 23.44458008 C251 26 251 26 250.84838867 28.7644043 C250 31 250 31 249 32 C247.58735759 32.09656057 246.16990491 32.12371857 244.75396633 32.12304783 C243.83235885 32.12503888 242.91075137 32.12702993 241.96121639 32.12908131 C240.42477013 32.12471205 240.42477013 32.12471205 238.85728455 32.12025452 C237.7783723 32.12110894 236.69946005 32.12196337 235.58785349 32.12284368 C231.94258574 32.12450168 228.29736318 32.11897191 224.65209961 32.11352539 C222.05099997 32.11324356 219.44990025 32.11340117 216.84880066 32.1139679 C211.23337771 32.11449332 205.61796634 32.11134465 200.00254631 32.10573006 C191.88350192 32.09761748 183.76446314 32.09500009 175.64541513 32.09374207 C162.47413751 32.09155116 149.30286606 32.08489005 136.1315918 32.07543945 C123.33374055 32.06626632 110.53589098 32.05918501 97.73803711 32.05493164 C96.949733 32.05466892 96.16142889 32.05440619 95.34923678 32.05413551 C91.39471261 32.05283051 87.44018843 32.05156679 83.48566425 32.05032361 C50.657105 32.0399498 17.82855333 32.02233045 -15 32 C-13.7935981 29.55971023 -12.54408953 27.17171233 -11.23046875 24.78515625 C-10.89853516 24.17994141 -10.56660156 23.57472656 -10.22460938 22.95117188 C-9.550743 21.72399902 -8.8713499 20.4998391 -8.18554688 19.27929688 C-5.88158898 15.04726673 -4.07615844 10.73016618 -2.36450195 6.22436523 C-1.92000198 5.0575975 -1.47550201 3.89082977 -1.01753235 2.68870544 C-0.68174667 1.80143265 -0.345961 0.91415985 0 0 Z " fill="#FEFEFE" transform="translate(289,489)"/>
<path d="M0 0 C83.82 0 167.64 0 254 0 C247.25 7.875 247.25 7.875 244.125 10.4375 C243.23167969 11.17806641 243.23167969 11.17806641 242.3203125 11.93359375 C241.66675781 12.46146484 241.66675781 12.46146484 241 13 C240.7525 12.38125 240.505 11.7625 240.25 11.125 C238.7500179 8.57503043 237.75668203 7.99060443 235 7 C230.4438768 6.29905797 227.02423204 6.36802704 223.0625 8.8125 C220.86570891 11.02029982 220.86570891 11.02029982 219 14 C216.20947397 14.31850442 213.63666064 14.43906944 210.84091187 14.43478394 C209.56049639 14.45027068 209.56049639 14.45027068 208.25421393 14.46607029 C205.37693025 14.49691311 202.49998745 14.50603801 199.62255859 14.51513672 C197.56629471 14.53228851 195.51004027 14.55060619 193.45379639 14.57000732 C187.85440715 14.61801294 182.25510541 14.64551564 176.65555525 14.66642904 C173.15820003 14.67965059 169.66087075 14.69590681 166.16353226 14.71295547 C155.22425562 14.76475614 144.28504272 14.80287561 133.34566247 14.8233813 C120.71234194 14.84740281 108.08038189 14.91756218 95.44752252 15.02738369 C85.68776102 15.10931051 75.92838754 15.14902209 66.16828787 15.15698445 C60.33688699 15.16273631 54.5068878 15.18659355 48.67585373 15.25472641 C43.18739522 15.31776178 37.70129585 15.32840025 32.21257782 15.29906464 C30.20016429 15.29730279 28.18763194 15.31430989 26.17556381 15.35163498 C10.98390675 15.61743613 10.98390675 15.61743613 6.01906204 11.56970596 C3.24874063 7.86553116 1.458153 4.37445899 0 0 Z " fill="#F9F9F9" transform="translate(271,412)"/>
<path d="M0 0 C3.375 -0.125 3.375 -0.125 7 0 C9 2 9 2 9.3125 4.9375 C9 8 9 8 7.8125 9.875 C5.34492892 11.40659584 3.85480169 11.42822025 1 11 C0.3768895 10.25823407 0.3768895 10.25823407 -0.25880909 9.50148296 C-2.86212666 7.25656142 -4.96236636 7.61474082 -8.35905457 7.60127258 C-9.00681911 7.59462576 -9.65458366 7.58797893 -10.32197744 7.58113068 C-12.49630469 7.56245215 -14.670084 7.56510908 -16.84448242 7.56762695 C-18.40156332 7.55861271 -19.95863709 7.54828632 -21.51570129 7.53674316 C-25.74681227 7.5091072 -29.97778885 7.49987974 -34.20897841 7.49388909 C-38.62930767 7.48452253 -43.04953585 7.4583206 -47.46980286 7.43388367 C-55.84201763 7.39016757 -64.21421285 7.36165204 -72.58650714 7.33856028 C-82.1172877 7.31153595 -91.64796683 7.26762279 -101.17867506 7.22227156 C-120.78572886 7.12935212 -140.39281302 7.05770485 -160 7 C-159.67 6.01 -159.34 5.02 -159 4 C-107.19 4 -55.38 4 -2 4 C-1.34 2.68 -0.68 1.36 0 0 Z " fill="#242424" transform="translate(935,380)"/>
</svg>
