<?xml version="1.0" encoding="UTF-8"?>
<svg width="560px" height="454px" viewBox="0 0 1080 877" version="1.1" xmlns="http://www.w3.org/2000/svg" xmlns:xlink="http://www.w3.org/1999/xlink">
<path d="M0 0 C356.4 0 712.8 0 1080 0 C1080 356.4 1080 712.8 1080 877 C723.6 877 367.2 877 0 877 C0 520.4 0 164 0 0 Z" fill="#FEFEFD" transform="translate(0,0)"/>
<path d="M0 0 C1.13498932 -0.01248528 1.13498932 -0.01248528 2.29290771 -0.02522278 C4.79273646 -0.04930234 7.29230392 -0.05809392 9.79223633 -0.06469727 C11.53615902 -0.07366778 13.28008093 -0.0827897 15.02400208 -0.09205627 C18.68154772 -0.10854511 22.33900187 -0.11624573 25.99658203 -0.11914062 C30.66604995 -0.12451296 35.33464805 -0.16214531 40.00387096 -0.20788479 C43.60802788 -0.2377473 47.21197811 -0.24486623 50.81624794 -0.24586678 C52.53653239 -0.25005374 54.25681833 -0.26242645 55.97698021 -0.28338432 C74.05775777 -0.48607065 74.05775777 -0.48607065 80.43676758 5.30639648 C85.36980967 11.73487222 86.13297131 17.55766827 85.92504883 25.46655273 C85.91797409 26.49703232 85.91089935 27.5275119 85.90361023 28.58921814 C85.87583365 31.84987929 85.81312562 35.10876274 85.74926758 38.36889648 C85.72416313 40.59217881 85.70135375 42.81548831 85.6809082 45.03881836 C85.62606244 50.4619412 85.54260638 55.8840418 85.43676758 61.30639648 C86.65229435 61.30086573 87.86782112 61.29533497 89.12018204 61.28963661 C118.00783592 61.15954449 146.8954847 61.06068101 175.78336395 61.00000451 C179.34296255 60.99250073 182.90256053 60.98473475 186.4621582 60.97680664 C187.17077679 60.97523278 187.87939538 60.97365892 188.60948727 60.97203736 C200.06662826 60.94596618 211.52358767 60.89867918 222.98062113 60.84347971 C234.74635686 60.78726788 246.51199782 60.75402217 258.27786231 60.74186552 C264.88252149 60.73438872 271.48684364 60.71573322 278.09137726 60.67201614 C284.31304799 60.63116857 290.53413976 60.61875236 296.75593185 60.6277504 C299.03430456 60.62610522 301.31269743 60.61424352 303.59095383 60.59116364 C327.34568575 60.36240224 327.34568575 60.36240224 337.32852554 68.92995644 C345.27907998 77.27945204 346.0200442 86.67005652 345.93797302 97.72264099 C345.94187036 99.1793416 345.94751426 100.6360384 345.95474392 102.09272629 C345.96945476 106.07797814 345.95934355 110.06283311 345.94500721 114.04807198 C345.93387621 118.35286821 345.94584709 122.65760973 345.95484924 126.96240234 C345.96876959 135.3887959 345.96123425 143.81503942 345.94617366 152.2414258 C345.92929625 162.05882481 345.93252606 171.87618662 345.93626774 181.69359566 C345.9421442 199.21372947 345.92798357 216.73379138 345.90332031 234.25390625 C345.87940386 251.24547013 345.87231492 268.23693794 345.8828125 285.22851562 C345.89422864 303.73999586 345.89614287 322.25143167 345.8817144 340.76291138 C345.8801886 342.7378817 345.87866824 344.71285202 345.8771534 346.68782234 C345.87639558 347.65949126 345.87563777 348.63116017 345.87485699 349.6322736 C345.87011926 356.47152996 345.871962 363.31076645 345.8762188 370.15002251 C345.88115179 378.48836476 345.87513295 386.82661628 345.8553245 395.16493779 C345.84547064 399.41731728 345.84032672 403.66955877 345.84821701 407.92194557 C345.85529913 411.81858837 345.84841039 415.71495334 345.83061338 419.61155964 C345.8265852 421.0172413 345.82754125 422.4229485 345.83413225 423.82862049 C345.87653791 433.7234168 345.40277862 443.58678777 339.09301758 451.70483398 C333.57814195 457.03761466 326.88589017 460.42616379 319.20685518 460.43634832 C318.36331261 460.43987674 317.51977004 460.44340516 316.65066558 460.4470405 C315.72709437 460.44584272 314.80352316 460.44464495 313.85196495 460.44341087 C312.86433531 460.4460627 311.87670566 460.44871453 310.85914785 460.45144671 C307.52346988 460.45915451 304.18782863 460.45969945 300.85214233 460.46029663 C298.4469329 460.46431027 296.04172415 460.46874832 293.63651621 460.47357619 C287.70255325 460.48430018 281.76859599 460.49030025 275.83462569 460.49428506 C268.72867239 460.49929404 261.62273057 460.51002151 254.51678405 460.5207668 C237.34058519 460.5463976 220.16438187 460.56143231 202.98816937 460.57427727 C197.29959142 460.57853175 191.61101379 460.58309747 185.92243624 460.58786058 C155.67960364 460.61311959 125.4367705 460.63516896 95.19392967 460.64758873 C88.18682224 460.65051008 81.17971482 460.6534776 74.17260742 460.65649414 C72.86678393 460.6570505 72.86678393 460.6570505 71.53458016 460.65761811 C43.30612291 460.66977498 15.07772798 460.70072151 -13.15069999 460.74241566 C-42.16791123 460.78519675 -71.18508955 460.81182886 -100.20233319 460.81706344 C-104.30019619 460.8178039 -108.39805914 460.81871458 -112.49592209 460.81972122 C-113.30242174 460.81991184 -114.10892139 460.82010245 -114.93986042 460.82029884 C-127.92189106 460.82381313 -140.90384365 460.84411421 -153.88584562 460.87051786 C-166.93372952 460.89665545 -179.98152318 460.90439288 -193.02942951 460.89341657 C-200.78149424 460.88743775 -208.53325302 460.89536176 -216.28527148 460.92324741 C-222.07353664 460.94252843 -227.86153593 460.93568509 -233.64979737 460.91867824 C-235.99170341 460.91586811 -238.33363801 460.92153258 -240.67549796 460.93649118 C-243.85864721 460.95558159 -247.0402686 460.94381744 -250.22338295 460.92442894 C-251.13290716 460.93727816 -252.04243137 460.95012738 -252.97951692 460.96336597 C-260.57519094 460.86169065 -267.04580621 458.50353555 -272.72010801 453.34592005 C-280.84117303 444.89921804 -281.00127753 436.01177273 -280.94418335 424.83836365 C-280.94764294 423.3638908 -280.95240952 421.88942055 -280.95836508 420.41495568 C-280.97086327 416.37611209 -280.96471014 412.33748176 -280.95540643 408.29863751 C-280.94861149 403.93798908 -280.95909933 399.57737702 -280.96734619 395.21673584 C-280.98068062 386.67961122 -280.97780717 378.14256576 -280.96910827 369.60543805 C-280.96233144 362.66727601 -280.961415 355.72913615 -280.96467972 348.79097176 C-280.96513942 347.80327277 -280.96559912 346.81557379 -280.96607275 345.79794453 C-280.96703193 343.79142792 -280.96800457 341.78491131 -280.96899052 339.77839471 C-280.97754345 320.96708569 -280.96771156 302.15582055 -280.95158942 283.34451873 C-280.93818425 267.20361552 -280.94051617 251.06277704 -280.9543457 234.921875 C-280.97039963 216.17604525 -280.97672168 197.43025393 -280.96750891 178.68441826 C-280.96655327 176.685614 -280.96561015 174.68680972 -280.96467972 172.68800545 C-280.96421689 171.70456297 -280.96375406 170.72112049 -280.96327721 169.70787672 C-280.96068692 162.77755151 -280.96505913 155.84725068 -280.97211838 148.91692924 C-280.98053139 140.47198344 -280.97825731 132.0271213 -280.96227615 123.58218508 C-280.9543911 119.2734735 -280.95130586 114.96490142 -280.9612236 110.65619087 C-280.97016602 106.71156125 -280.96524521 102.76720038 -280.94929095 98.82259513 C-280.94594125 97.39607312 -280.9476415 95.96952839 -280.95491831 94.54302102 C-281.01671108 81.42254352 -281.01671108 81.42254352 -277.56323242 75.30639648 C-277.05083008 74.31446289 -277.05083008 74.31446289 -276.52807617 73.30249023 C-273.06509413 68.04876462 -268.31074409 64.78865515 -262.56323242 62.30639648 C-256.94398249 61.2678247 -251.48887847 61.16760585 -245.79994202 61.18614197 C-244.83432624 61.18528754 -243.86871046 61.18443312 -242.8738336 61.1835528 C-239.64796637 61.18190963 -236.42215148 61.18740032 -233.19628906 61.19287109 C-230.88001507 61.19315324 -228.56374098 61.19299469 -226.24746704 61.19242859 C-219.96501623 61.1921417 -213.68258451 61.19802104 -207.40013814 61.20500255 C-200.83246918 61.211254 -194.26479978 61.2118413 -187.6971283 61.21302795 C-176.67552357 61.2156163 -165.65392553 61.22202899 -154.63232422 61.23095703 C-143.28206416 61.24014172 -131.931806 61.24721738 -120.58154297 61.25146484 C-119.88143807 61.25172757 -119.18133318 61.25199029 -118.46001298 61.25226098 C-114.94765069 61.25356605 -111.43528838 61.25482975 -107.92292607 61.25607288 C-78.80302364 61.26643277 -49.68312812 61.28411452 -20.56323242 61.30639648 C-20.57211487 60.72059311 -20.58099731 60.13478973 -20.59014893 59.53123474 C-20.67887864 53.41529125 -20.73907274 47.29953164 -20.78295898 41.18310547 C-20.80303162 38.90275643 -20.83029586 36.6224586 -20.86499023 34.34228516 C-20.91369851 31.05805806 -20.93624528 27.77451357 -20.95385742 24.48999023 C-20.97450256 23.47617783 -20.99514771 22.46236542 -21.01641846 21.41783142 C-21.0183941 15.13717107 -20.27015757 11.42825309 -16.56323242 6.30639648 C-11.22268517 1.36639028 -7.19405136 0.00673299 0 0 Z " fill="#0E3858" transform="translate(474.563232421875,248.693603515625)"/>
<path d="M0 0 C2.88649849 5.61974928 5.44543245 11.2844336 7.8203125 17.13671875 C8.33741287 18.40042046 8.33741287 18.40042046 8.86495972 19.68965149 C9.95455442 22.35442147 11.03982586 25.02092723 12.125 27.6875 C12.86039584 29.48774512 13.59607047 31.28787638 14.33203125 33.08789062 C19.7469022 46.3403824 19.7469022 46.3403824 22 52 C23.84800219 43.46897104 25.27400428 35.03451247 25.8125 26.3125 C25.865271 25.5592041 25.91804199 24.8059082 25.97241211 24.02978516 C26.18901602 19.74884286 25.69713748 16.88638174 24 13 C23.46197409 8.6704141 23.26416734 4.35876109 23 0 C31.58 0 40.16 0 49 0 C49 11.25 49 11.25 47 18 C46.73409969 24.96795167 47.45235315 31.60855415 48.4375 38.5 C48.57220703 39.5003125 48.70691406 40.500625 48.84570312 41.53125 C49.1021531 46.11863457 49.1021531 46.11863457 51 50 C51.64231567 48.41300293 51.64231567 48.41300293 52.29760742 46.79394531 C53.90913613 42.81273982 55.52147187 38.83186156 57.1340332 34.85107422 C57.82760769 33.13859622 58.52097256 31.42603331 59.21411133 29.71337891 C61.469948 24.13975214 63.73046634 18.56806476 66 13 C66.26830627 12.34153076 66.53661255 11.68306152 66.81304932 11.00463867 C67.51413038 9.28825544 68.21976421 7.57373377 68.92578125 5.859375 C69.49872925 4.4667041 69.49872925 4.4667041 70.08325195 3.04589844 C71 1 71 1 72 0 C86.83440601 -1.30965893 100.98278224 3.25861482 112.86328125 12.140625 C124.6682324 22.38710763 132.93650516 35.27583358 135 51 C135.47872488 57.87516025 135.43226518 64.76805459 135.39111328 71.65625 C135.3749327 74.88844333 135.39107449 78.11940555 135.41015625 81.3515625 C135.40817547 83.41927357 135.40433523 85.48698389 135.3984375 87.5546875 C135.40451019 88.51414276 135.41058289 89.47359802 135.4168396 90.46212769 C135.36168173 95.7220972 134.96608366 99.46204531 132 104 C118.73025694 115.14064249 98.5504601 117.28740815 82 119 C81.12939941 119.09168457 80.25879883 119.18336914 79.36181641 119.27783203 C44.63302435 122.76546433 9.25971081 122.29990678 -25.1875 116.6875 C-26.36989258 116.49905518 -27.55228516 116.31061035 -28.77050781 116.11645508 C-40.78414938 114.01669568 -53.77644322 110.61466204 -62 101 C-62.49447632 98.6121521 -62.49447632 98.6121521 -62.48583984 95.93115234 C-62.4919931 94.92265228 -62.49814636 93.91415222 -62.50448608 92.87509155 C-62.49011505 91.78967072 -62.47574402 90.70424988 -62.4609375 89.5859375 C-62.46002106 88.46111969 -62.45910461 87.33630188 -62.4581604 86.17739868 C-62.45211757 83.79514351 -62.43635136 81.41289618 -62.41162109 79.03076172 C-62.37534601 75.40954097 -62.37060031 71.78935141 -62.37109375 68.16796875 C-62.36125305 65.8489496 -62.34959192 63.52993733 -62.3359375 61.2109375 C-62.33371185 60.13766205 -62.33148621 59.0643866 -62.32919312 57.95858765 C-62.13207483 42.08659804 -57.52556062 28.71779047 -46.3046875 17.17578125 C-32.6899769 4.32257141 -18.45039822 -0.5133032 0 0 Z " fill="#FDFDFD" transform="translate(311,528)"/>
<path d="M0 0 C0.98871094 0.35191406 1.97742188 0.70382812 2.99609375 1.06640625 C22.19544395 8.47711085 35.85068702 21.81733542 44.52734375 40.33984375 C52.51710394 60.19768274 51.49974781 79.03933651 43.42578125 98.87890625 C34.95827492 117.41462559 19.92994535 129.24759492 1.31640625 136.77734375 C-15.53899035 142.99140634 -35.56182848 141.55646221 -51.90234375 134.33984375 C-60.965138 130.01525017 -68.03467644 124.16000652 -75 117 C-75.60328125 116.39414062 -76.2065625 115.78828125 -76.828125 115.1640625 C-89.61154953 101.37142024 -94.80293377 82.84497899 -94.30859375 64.44140625 C-93.46329231 48.36664894 -86.71304426 32.94571672 -76 21 C-75.32195312 20.24074219 -74.64390625 19.48148437 -73.9453125 18.69921875 C-65.77639602 10.0506328 -56.01598713 4.33963129 -45 0 C-44.22011719 -0.32097656 -43.44023437 -0.64195312 -42.63671875 -0.97265625 C-29.83221904 -5.36335392 -12.60609866 -4.62285503 0 0 Z " fill="#FDFEFE" transform="translate(369,374)"/>
<path d="M0 0 C0.87809759 -0.00507454 1.75619518 -0.01014909 2.66090178 -0.0153774 C3.63150235 -0.01587516 4.60210292 -0.01637292 5.60211563 -0.01688576 C6.62864628 -0.02126801 7.65517693 -0.02565027 8.71281457 -0.03016531 C12.17512326 -0.04358985 15.63740648 -0.04974036 19.09973526 -0.0558567 C21.57302339 -0.06375475 24.04631036 -0.07202351 26.5195961 -0.08063698 C33.95822782 -0.10462325 41.39685536 -0.11978962 48.83551252 -0.13269705 C50.93606794 -0.13640828 53.0366227 -0.14038157 55.13717747 -0.14444971 C68.17765712 -0.16968567 81.21813779 -0.19174166 94.25863647 -0.20417786 C97.27988819 -0.20710762 100.30113988 -0.21006927 103.32239151 -0.21308327 C104.4487866 -0.21420234 104.4487866 -0.21420234 105.59793714 -0.21534403 C117.76383086 -0.22799891 129.92957847 -0.26122307 142.09540388 -0.3028851 C154.58213419 -0.34529598 167.06878967 -0.36887191 179.55559182 -0.37409842 C186.56798242 -0.37751354 193.5801447 -0.38928019 200.59246445 -0.42220116 C207.18834435 -0.45311604 213.78389815 -0.45862326 220.37986374 -0.4468174 C222.80264646 -0.44659597 225.22544722 -0.45495803 227.64816666 -0.47247124 C230.95263608 -0.49506075 234.25564791 -0.48691405 237.56012344 -0.47098732 C238.52180113 -0.48486941 239.48347881 -0.49875149 240.47429824 -0.51305425 C244.89698152 -0.46043203 247.89626736 -0.28630242 251.41477203 2.5500145 C254.27782921 5.61024809 254.77125845 6.29128848 255.08508682 10.44951439 C254.76515 15.16858256 253.5347183 17.63822002 250.00157446 20.75386959 C247.54505908 22.32217601 246.30409226 22.51343406 243.42128468 22.51733112 C242.53858829 22.52577106 241.65589191 22.534211 240.74644715 22.5429067 C239.78099014 22.53689666 238.81553313 22.53088661 237.82081985 22.52469444 C236.79187479 22.53007998 235.76292972 22.53546552 234.70280451 22.54101425 C231.24425526 22.55535727 227.78608534 22.54817435 224.32751846 22.54106712 C221.85231085 22.54676736 219.37710587 22.55373026 216.90190506 22.56186485 C210.87015538 22.57798037 204.83855554 22.57988913 198.806799 22.57465195 C193.90465683 22.57061235 189.00254544 22.5720513 184.10040474 22.57740021 C183.40299928 22.57814863 182.70559382 22.57889705 181.98705487 22.57966815 C180.57032565 22.58119961 179.15359644 22.58273796 177.73686724 22.58428312 C164.44757755 22.59801475 151.15834671 22.59256585 137.86905836 22.58109791 C125.70909569 22.571165 113.54928516 22.58410596 101.38934595 22.6080321 C88.90593233 22.63240981 76.42258961 22.64203424 63.93915266 22.63537937 C56.92967297 22.63188416 49.92031033 22.63413903 42.91084862 22.6516304 C36.32069248 22.66787131 29.73078015 22.66319144 23.14061546 22.64432526 C20.71903923 22.64062752 18.29744161 22.64378208 15.87588501 22.65421104 C12.57569638 22.66734113 9.27648343 22.65594349 5.97633743 22.63821983 C5.01311115 22.64782484 4.04988486 22.65742985 3.0574699 22.66732591 C-1.1733152 22.62042434 -3.5454357 22.50890831 -7.23624134 20.29318905 C-10.50138535 16.64289425 -10.49598788 13.0429884 -10.45788193 8.36357689 C-10.02437937 5.06895742 -8.53941775 3.37184223 -6.16491318 1.13701439 C-3.86232162 -0.01428139 -2.56140887 0.00783939 0 0 Z " fill="#FEFEFE" transform="translate(495.16491317749023,550.8629856109619)"/>
<path d="M0 0 C1.30762125 -0.00576172 1.30762125 -0.00576172 2.64165908 -0.01163983 C4.08691027 -0.01034011 4.08691027 -0.01034011 5.56135845 -0.00901413 C6.58042756 -0.01198525 7.59949667 -0.01495637 8.64944667 -0.01801753 C12.08645664 -0.0267343 15.52343191 -0.02821529 18.96045208 -0.02970505 C21.41565813 -0.03433111 23.87086345 -0.03935548 26.32606792 -0.04475021 C33.01202373 -0.05789646 39.69796587 -0.0643599 46.3839314 -0.06876087 C50.55731951 -0.0715217 54.73070529 -0.07575877 58.90409184 -0.08026505 C70.45492215 -0.09245929 82.0057506 -0.10275814 93.55658722 -0.10614014 C94.29616198 -0.1063597 95.03573674 -0.10657927 95.79772286 -0.10680549 C96.90976811 -0.10713291 96.90976811 -0.10713291 98.04427892 -0.10746694 C99.54661008 -0.10791041 101.04894124 -0.10835697 102.55127239 -0.10880661 C103.29648353 -0.10902804 104.04169467 -0.10924947 104.80948796 -0.10947761 C116.88548229 -0.11342589 128.96141627 -0.13088012 141.03738729 -0.15416613 C153.43032316 -0.17787078 165.82322874 -0.19034159 178.21618766 -0.19150805 C185.1765011 -0.19242534 192.13673596 -0.19819106 199.09702778 -0.21632767 C205.64278982 -0.23332376 212.18842886 -0.2349879 218.73421574 -0.22618866 C221.13966934 -0.22541564 223.54513082 -0.22979569 225.95056438 -0.23964691 C229.22880527 -0.25228751 232.50651055 -0.24653235 235.78474712 -0.23606491 C236.74155575 -0.24412132 237.69836438 -0.25217772 238.68416721 -0.26047826 C244.69930485 -0.21541216 248.22796758 0.5867485 252.67602825 4.88142776 C254.39221151 8.13314341 254.24514913 10.50602939 253.86352825 14.13142776 C252.17205742 17.8526636 250.28671077 19.94597468 246.86352825 22.13142776 C244.75665623 22.50862592 244.75665623 22.50862592 242.4497261 22.5117445 C241.56702972 22.52018444 240.68433334 22.52862438 239.77488858 22.53732008 C238.80943157 22.53131003 237.84397456 22.52529999 236.84926128 22.51910782 C235.82031622 22.52449336 234.79137115 22.52987889 233.73124593 22.53542763 C230.27269669 22.54977065 226.81452677 22.54258772 223.35595989 22.5354805 C220.88075228 22.54118073 218.4055473 22.54814364 215.93034649 22.55627823 C209.89859681 22.57239375 203.86699697 22.57430251 197.83524043 22.56906532 C192.93309825 22.56502572 188.03098687 22.56646468 183.12884617 22.57181358 C182.43144071 22.57256201 181.73403525 22.57331043 181.01549629 22.57408153 C179.59876708 22.57561299 178.18203787 22.57715134 176.76530867 22.5786965 C163.47601898 22.59242812 150.18678814 22.58697923 136.89749979 22.57551128 C124.73753712 22.56557837 112.57772659 22.57851934 100.41778738 22.60244548 C87.93437376 22.62682318 75.45103104 22.63644762 62.96759409 22.62979275 C55.9581144 22.62629754 48.94875175 22.6285524 41.93929005 22.64604378 C35.34913391 22.66228469 28.75922158 22.65760482 22.16905689 22.63873863 C19.74748066 22.6350409 17.32588304 22.63819546 14.90432644 22.64862442 C11.60413781 22.6617545 8.30492486 22.65035687 5.00477886 22.63263321 C4.04155258 22.64223822 3.07832629 22.65184322 2.08591133 22.66173929 C-2.18753402 22.6143648 -4.50793133 22.52155297 -8.20779991 20.22510242 C-11.6109388 16.53081627 -11.52400732 13.487582 -11.49584675 8.61580276 C-11.13647175 6.13142776 -11.13647175 6.13142776 -8.76147175 3.06892776 C-5.49311434 0.65656873 -3.97174059 0.00654888 0 0 Z " fill="#FEFEFE" transform="translate(496.13647174835205,602.8685722351074)"/>
<path d="M0 0 C1.32237148 -0.00946191 1.32237148 -0.00946191 2.67145753 -0.01911497 C3.64594905 -0.02097697 4.62044056 -0.02283896 5.62446213 -0.02475739 C6.65507633 -0.03055077 7.68569053 -0.03634416 8.74753547 -0.0423131 C12.22365729 -0.06044534 15.69976278 -0.07126545 19.17591476 -0.08200836 C21.65905533 -0.09317837 24.14219438 -0.10469152 26.62533188 -0.11652374 C34.79939998 -0.15313892 42.97347862 -0.17836948 51.14759445 -0.20114899 C51.84244143 -0.20312389 52.53728841 -0.20509879 53.25319135 -0.20713353 C67.04683533 -0.24629294 80.8404883 -0.28000294 94.63417053 -0.30221558 C97.6674539 -0.30718499 100.70073713 -0.3122293 103.73402023 -0.31735992 C104.4879409 -0.3186306 105.24186158 -0.31990127 106.01862833 -0.32121044 C118.23308428 -0.34257299 130.4472713 -0.39157002 142.66159192 -0.45160407 C155.19803902 -0.51271398 167.73434732 -0.54740179 180.2709415 -0.55668879 C187.31137922 -0.56260219 194.35136137 -0.58037847 201.39165115 -0.62807465 C208.01386387 -0.67289682 214.63545071 -0.68226414 221.25784492 -0.66744614 C223.6903206 -0.66777577 226.12282837 -0.68012819 228.55517387 -0.70529556 C231.87323206 -0.73781922 235.18845752 -0.72730763 238.50654221 -0.70590973 C239.95489515 -0.73547138 239.95489515 -0.73547138 241.43250775 -0.76563025 C247.76827314 -0.66225611 247.76827314 -0.66225611 250.76530409 1.63244534 C253.5390725 4.70850019 254.71643026 6.55527761 255.44446945 10.70510101 C254.70970899 14.74628356 253.40076944 16.9712896 250.81946945 20.14260101 C247.71711201 22.21083931 247.05936079 22.39362456 243.54712582 22.40266323 C242.67052057 22.40972882 241.79391533 22.41679441 240.8907463 22.42407411 C239.92694952 22.42165903 238.96315274 22.41924394 237.97014999 22.41675568 C236.94684847 22.42199235 235.92354695 22.42722903 234.86923629 22.4326244 C231.42381602 22.44768379 227.97854348 22.44833086 224.5330925 22.4489975 C222.06950757 22.456615 219.60592503 22.46504178 217.14234543 22.47422028 C210.43777773 22.49621285 203.73326983 22.50499211 197.02867484 22.51004672 C192.84270681 22.5133025 188.65674797 22.51982427 184.47078514 22.52704811 C172.88217305 22.54661566 161.29356952 22.56301891 149.70493984 22.56592464 C148.59230631 22.566206 148.59230631 22.566206 147.45719533 22.56649304 C145.9534574 22.56685929 144.44971946 22.56722299 142.94598152 22.56758415 C141.82628652 22.56785837 141.82628652 22.56785837 140.68397141 22.56813812 C139.93659746 22.56831867 139.18922352 22.56849922 138.41920189 22.56868524 C126.30832887 22.57222708 114.19763365 22.59924929 102.08682229 22.63663601 C89.65429237 22.6747089 77.22185069 22.69408205 64.78926116 22.69438416 C57.80819545 22.69496897 50.8273418 22.7034759 43.84633064 22.73238182 C37.28079067 22.75944225 30.71559782 22.76080921 24.14999771 22.74472618 C21.73850783 22.74290572 19.32699418 22.74965587 16.91555595 22.76554489 C13.62644841 22.78589766 10.33882723 22.77551576 7.04973984 22.75733185 C6.09263522 22.77053182 5.13553061 22.78373178 4.14942282 22.79733175 C-0.26313933 22.74150975 -3.24774831 22.55852136 -6.75742245 19.72918034 C-10.35894989 15.88468144 -10.51457871 13.50638328 -10.4734993 8.40431976 C-10.04397254 5.08837321 -8.57128701 3.39272474 -6.18053055 1.14260101 C-3.87570985 -0.00980934 -2.56446591 0.01145406 0 0 Z " fill="#FEFEFE" transform="translate(495.1805305480957,498.8573989868164)"/>
<path d="M0 0 C1.32237148 -0.00946191 1.32237148 -0.00946191 2.67145753 -0.01911497 C3.64594905 -0.02097697 4.62044056 -0.02283896 5.62446213 -0.02475739 C6.65507633 -0.03055077 7.68569053 -0.03634416 8.74753547 -0.0423131 C12.22365729 -0.06044534 15.69976278 -0.07126545 19.17591476 -0.08200836 C21.65905533 -0.09317837 24.14219438 -0.10469152 26.62533188 -0.11652374 C34.79939998 -0.15313892 42.97347862 -0.17836948 51.14759445 -0.20114899 C51.84244143 -0.20312389 52.53728841 -0.20509879 53.25319135 -0.20713353 C67.04683533 -0.24629294 80.8404883 -0.28000294 94.63417053 -0.30221558 C97.6674539 -0.30718499 100.70073713 -0.3122293 103.73402023 -0.31735992 C104.4879409 -0.3186306 105.24186158 -0.31990127 106.01862833 -0.32121044 C118.23308428 -0.34257299 130.4472713 -0.39157002 142.66159192 -0.45160407 C155.19803902 -0.51271398 167.73434732 -0.54740179 180.2709415 -0.55668879 C187.31137922 -0.56260219 194.35136137 -0.58037847 201.39165115 -0.62807465 C208.01386387 -0.67289682 214.63545071 -0.68226414 221.25784492 -0.66744614 C223.6903206 -0.66777577 226.12282837 -0.68012819 228.55517387 -0.70529556 C231.87323206 -0.73781922 235.18845752 -0.72730763 238.50654221 -0.70590973 C239.95489515 -0.73547138 239.95489515 -0.73547138 241.43250775 -0.76563025 C247.76827314 -0.66225611 247.76827314 -0.66225611 250.76530409 1.63244534 C253.5390725 4.70850019 254.71643026 6.55527761 255.44446945 10.70510101 C254.69968538 14.80141341 253.53072928 16.99167743 250.81946945 20.14260101 C246.09478378 22.83613172 241.0842271 22.43017238 235.8055687 22.41675568 C234.78872543 22.42199235 233.77188216 22.42722903 232.72422546 22.4326244 C229.31265581 22.4476414 225.90123592 22.44832993 222.48963547 22.4489975 C220.04545971 22.45661771 217.60128635 22.46504497 215.15711594 22.47422028 C208.51464805 22.49618291 201.8722405 22.50498802 195.22974515 22.51004672 C191.08162349 22.51330549 186.93351109 22.51982894 182.78539467 22.52704811 C171.29792613 22.54660885 159.81046619 22.56301689 148.32297993 22.56592464 C147.22085459 22.566206 147.22085459 22.566206 146.09646409 22.56649304 C144.60699777 22.56685928 143.11753144 22.56722298 141.62806512 22.56758415 C140.5190273 22.56785837 140.5190273 22.56785837 139.38758469 22.56813812 C138.27719212 22.56840895 138.27719212 22.56840895 137.14436739 22.56868524 C125.14355181 22.57222859 113.14291548 22.59926325 101.14216209 22.63663601 C88.81804997 22.67470851 76.49402683 22.69408203 64.16985458 22.69438416 C57.25141612 22.69496887 50.33319167 22.7034697 43.41480827 22.73238182 C36.90997831 22.75944116 30.40549872 22.76080968 23.90060806 22.74472618 C21.5116922 22.7429058 19.12275234 22.74965513 16.73388863 22.76554489 C13.47553686 22.78589902 10.2186853 22.77551515 6.96035385 22.75733185 C5.53841613 22.7771318 5.53841613 22.7771318 4.0877524 22.79733175 C-0.30541509 22.74123499 -3.25885354 22.54530899 -6.75183582 19.72918034 C-10.3602719 15.88616703 -10.51460163 13.50922905 -10.4734993 8.40431976 C-10.04397254 5.08837321 -8.57128701 3.39272474 -6.18053055 1.14260101 C-3.87570985 -0.00980934 -2.56446591 0.01145406 0 0 Z " fill="#FCFCFD" transform="translate(495.1805305480957,446.8573989868164)"/>
<path d="M0 0 C6.14197621 4.93839704 11.15449564 11.41752404 12.75 19.25 C13.79037595 29.1399936 12.61575051 37.74661994 6.83203125 45.98046875 C0.4100046 53.67553431 -7.22959064 58.53529338 -17.28125 59.55859375 C-27.74169138 59.94732637 -35.25155175 57.51950788 -43.25 50.6875 C-43.91 49.883125 -44.57 49.07875 -45.25 48.25 C-45.930625 47.528125 -46.61125 46.80625 -47.3125 46.0625 C-53.32260527 37.33815364 -54.36587605 28.71852786 -53.25 18.25 C-50.80555026 8.32755904 -42.77110299 0.44121305 -34.25 -4.75 C-22.58160595 -9.78342489 -10.08292777 -6.97608991 0 0 Z " fill="#FDFDFD" transform="translate(759.25,351.75)"/>
<path d="M0 0 C0.08636719 1.08539063 0.17273438 2.17078125 0.26171875 3.2890625 C0.40250679 4.7344864 0.54449795 6.17979346 0.6875 7.625 C0.74099609 8.33785156 0.79449219 9.05070312 0.84960938 9.78515625 C1.42068752 15.19798387 2.94820071 18.13520684 7 22 C11.61914637 24.82176813 15.49921277 25.43795998 20.80615234 25.40405273 C21.94398918 25.41434761 21.94398918 25.41434761 23.10481262 25.42485046 C25.59871433 25.4430692 28.09198387 25.43928764 30.5859375 25.43359375 C32.32939863 25.43815844 34.07285796 25.44346487 35.8163147 25.44947815 C39.46615926 25.45839997 43.11578491 25.45599737 46.765625 25.44604492 C51.42832242 25.4345657 56.09026131 25.45475513 60.75285912 25.48396206 C64.35269929 25.50236639 67.9523592 25.50202304 71.55223465 25.49632454 C73.27052498 25.49617179 74.9888279 25.50217743 76.70707321 25.51461601 C89.00624247 25.84952152 89.00624247 25.84952152 100 21 C101.71979195 18.7188284 102.78497911 16.62444513 104 14 C104.33 13.34 104.66 12.68 105 12 C105.22858114 9.9625237 105.41024278 7.91959697 105.5625 5.875 C105.68818359 4.23144531 105.68818359 4.23144531 105.81640625 2.5546875 C105.87699219 1.71164062 105.93757812 0.86859375 106 0 C111.53626281 1.1940959 114.20608137 2.5737616 118 7 C118.53238281 7.55429687 119.06476563 8.10859375 119.61328125 8.6796875 C121.56839702 11.95106432 121.49139064 15.04608757 121.4375 18.75 C121.42614014 19.82362793 121.42614014 19.82362793 121.41455078 20.91894531 C121.24415735 26.3789977 120.6255995 30.79785257 117 35 C112.59266503 38.50787886 109.06864009 40.11752458 103.47235107 40.14717102 C102.08038261 40.15790398 102.08038261 40.15790398 100.66029358 40.16885376 C99.64414474 40.17154266 98.62799591 40.17423157 97.58105469 40.17700195 C96.50921432 40.18357315 95.43737396 40.19014435 94.33305359 40.19691467 C90.77932671 40.21665557 87.2256421 40.22831196 83.671875 40.23828125 C81.85218578 40.24439454 81.85218578 40.24439454 79.99573517 40.25063133 C73.57512075 40.27149524 67.15452772 40.28579571 60.73388672 40.29516602 C54.10153709 40.30623228 47.46952278 40.34063427 40.83729172 40.38033772 C35.73803075 40.4064798 30.63884998 40.41485573 25.53952789 40.41844749 C23.09471624 40.42331948 20.6499083 40.43495076 18.20516205 40.45348549 C14.78201197 40.47782511 11.3597335 40.47692088 7.93652344 40.4699707 C6.92847153 40.48278076 5.92041962 40.49559082 4.88182068 40.50878906 C-1.29919143 40.46309362 -4.94607218 39.62355468 -10 36 C-15.74852062 29.94074853 -16.45899551 24.27625148 -16.3125 16.1640625 C-15.73875097 10.35485356 -13.28341291 6.96154157 -8.9375 3.125 C-5.69890663 0.78218777 -3.98392224 0 0 0 Z " fill="#FDFDFD" transform="translate(454,325)"/>
</svg>
